<svg xmlns="http://www.w3.org/2000/svg" display="none">
    <symbol id="user" viewBox="0 0 16 16">
        <svg>
            <path d="M13.6569 10.3431C12.7855 9.47181 11.7484 8.82678 10.6168 8.43631C11.8288 7.60159 12.625 6.20463 12.625 4.625C12.625 2.07478 10.5502 0 8 0C5.44978 0 3.375 2.07478 3.375 4.625C3.375 6.20463 4.17122 7.60159 5.38319 8.43631C4.25163 8.82678 3.2145 9.47181 2.34316 10.3431C0.832156 11.8542 0 13.8631 0 16H1.25C1.25 12.278 4.27803 9.25 8 9.25C11.722 9.25 14.75 12.278 14.75 16H16C16 13.8631 15.1678 11.8542 13.6569 10.3431ZM8 8C6.13903 8 4.625 6.486 4.625 4.625C4.625 2.764 6.13903 1.25 8 1.25C9.86097 1.25 11.375 2.764 11.375 4.625C11.375 6.486 9.86097 8 8 8Z"/>
        </svg>
    </symbol>
    <symbol id="lock" viewBox="0 0 16 16">
        <svg>
            <g clip-path="url(#clip0)">
                <path d="M12.5 16H3.5C2.67333 16 2 15.3273 2 14.5V7.5C2 6.67267 2.67333 6 3.5 6H12.5C13.3267 6 14 6.67267 14 7.5V14.5C14 15.3273 13.3267 16 12.5 16ZM3.5 7C3.22467 7 3 7.224 3 7.5V14.5C3 14.776 3.22467 15 3.5 15H12.5C12.7753 15 13 14.776 13 14.5V7.5C13 7.224 12.7753 7 12.5 7H3.5Z"/>
                <path d="M11.5 7C11.224 7 11 6.776 11 6.5V4C11 2.346 9.654 0.999996 8 0.999996C6.346 0.999996 5 2.346 5 4V6.5C5 6.776 4.776 7 4.5 7C4.224 7 4 6.776 4 6.5V4C4 1.794 5.794 -3.8147e-06 8 -3.8147e-06C10.206 -3.8147e-06 12 1.794 12 4V6.5C12 6.776 11.776 7 11.5 7Z"/>
                <path d="M7.99999 11.3333C7.26466 11.3333 6.66666 10.7353 6.66666 10C6.66666 9.26467 7.26466 8.66667 7.99999 8.66667C8.73533 8.66667 9.33333 9.26467 9.33333 10C9.33333 10.7353 8.73533 11.3333 7.99999 11.3333ZM7.99999 9.66667C7.81666 9.66667 7.66666 9.816 7.66666 10C7.66666 10.184 7.81666 10.3333 7.99999 10.3333C8.18333 10.3333 8.33333 10.184 8.33333 10C8.33333 9.816 8.18333 9.66667 7.99999 9.66667Z"/>
                <path d="M8 13.3333C7.724 13.3333 7.5 13.1093 7.5 12.8333V11C7.5 10.724 7.724 10.5 8 10.5C8.276 10.5 8.5 10.724 8.5 11V12.8333C8.5 13.1093 8.276 13.3333 8 13.3333Z"/>
            </g>
            <defs>
                <clipPath id="clip0">
                    <rect width="16" height="16" fill="white"/>
                </clipPath>
            </defs>
        </svg>
    </symbol>
    <symbol id="email" viewBox="0 0 16 16">
        <svg>
            <path d="M14.5938 2H1.40625C0.631813 2 0 2.63112 0 3.40625V12.7812C0 13.5538 0.629 14.1875 1.40625 14.1875H14.5938C15.3663 14.1875 16 13.5585 16 12.7812V3.40625C16 2.63375 15.371 2 14.5938 2ZM14.3996 2.9375L8.02981 9.30728L1.60497 2.9375H14.3996ZM0.9375 12.5871V3.59591L5.45247 8.07216L0.9375 12.5871ZM1.60041 13.25L6.11822 8.73219L7.70125 10.3016C7.8845 10.4833 8.18022 10.4827 8.36272 10.3002L9.90625 8.75666L14.3996 13.25H1.60041ZM15.0625 12.5871L10.5692 8.09375L15.0625 3.60037V12.5871Z"/>
        </svg>
    </symbol>
    <symbol id="confirm" viewBox="0 0 16 16">
        <svg>
            <g clip-path="url(#clip0)">
                <path d="M8.00005 0.000999451C3.5888 0.000999451 0 3.58975 0 8.00094C0 12.4121 3.5888 16.0009 8.00005 16.0009C12.4112 16.0009 16 12.4121 16 8.00094C16 3.58975 12.4112 0.000999451 8.00005 0.000999451ZM8.00005 14.6894C4.31195 14.6894 1.31147 11.689 1.31147 8.00094C1.31147 4.31289 4.31195 1.31247 8.00005 1.31247C11.6881 1.31247 14.6885 4.31289 14.6885 8.00094C14.6885 11.689 11.6881 14.6894 8.00005 14.6894Z"/>
                <path d="M11.4608 4.92954L6.71089 9.67951L4.5392 7.50783C4.2831 7.25178 3.86794 7.25178 3.61184 7.50783C3.35579 7.76394 3.35579 8.17909 3.61184 8.4352L6.2472 11.0706C6.37526 11.1986 6.54307 11.2626 6.71089 11.2626C6.8787 11.2626 7.04652 11.1986 7.17457 11.0706L12.3882 5.85696C12.6442 5.60086 12.6442 5.1857 12.3882 4.92959C12.1321 4.67349 11.7169 4.67349 11.4608 4.92954Z"/>
            </g>
            <defs>
                <clipPath id="clip0">
                    <rect width="16" height="16" fill="white"/>
                </clipPath>
            </defs>
        </svg>
    </symbol>
    <symbol id="fullname" viewBox="0 0 16 16">
        <svg>
            <g clip-path="url(#clip0)">
                <path d="M14.1666 14.6771H1.83337C0.822021 14.6771 0 13.8551 0 12.8438V4.51038C0 3.49902 0.822021 2.67712 1.83337 2.67712H5.83337C6.10938 2.67712 6.33337 2.90112 6.33337 3.17712C6.33337 3.45313 6.10938 3.67712 5.83337 3.67712H1.83337C1.37402 3.67712 1 4.05103 1 4.51038V12.8438C1 13.3031 1.37402 13.6771 1.83337 13.6771H14.1666C14.626 13.6771 15 13.3031 15 12.8438V4.51038C15 4.05103 14.626 3.67712 14.1666 3.67712H10.1666C9.89062 3.67712 9.66663 3.45313 9.66663 3.17712C9.66663 2.90112 9.89062 2.67712 10.1666 2.67712H14.1666C15.178 2.67712 16 3.49902 16 4.51038V12.8438C16 13.8551 15.178 14.6771 14.1666 14.6771V14.6771Z"/>
                <path d="M9.5 5.01038H6.5C5.85669 5.01038 5.33337 4.48706 5.33337 3.84375V2.51038C5.33337 1.86707 5.85669 1.34375 6.5 1.34375H9.5C10.1433 1.34375 10.6666 1.86707 10.6666 2.51038V3.84375C10.6666 4.48706 10.1433 5.01038 9.5 5.01038ZM6.5 2.34375C6.40796 2.34375 6.33337 2.41846 6.33337 2.51038V3.84375C6.33337 3.93579 6.40796 4.01038 6.5 4.01038H9.5C9.59204 4.01038 9.66663 3.93579 9.66663 3.84375V2.51038C9.66663 2.41846 9.59204 2.34375 9.5 2.34375H6.5Z"/>
                <path d="M5 9.34375C4.0813 9.34375 3.33337 8.5957 3.33337 7.67712C3.33337 6.75842 4.0813 6.01038 5 6.01038C5.9187 6.01038 6.66663 6.75842 6.66663 7.67712C6.66663 8.5957 5.9187 9.34375 5 9.34375ZM5 7.01038C4.63269 7.01038 4.33337 7.30969 4.33337 7.67712C4.33337 8.04443 4.63269 8.34375 5 8.34375C5.36731 8.34375 5.66663 8.04443 5.66663 7.67712C5.66663 7.30969 5.36731 7.01038 5 7.01038Z"/>
                <path d="M7.5 12.6771C7.224 12.6771 7 12.4531 7 12.1771V11.8438C7 11.3844 6.62598 11.0104 6.16663 11.0104H3.83337C3.37402 11.0104 3 11.3844 3 11.8438V12.1771C3 12.4531 2.776 12.6771 2.5 12.6771C2.224 12.6771 2 12.4531 2 12.1771V11.8438C2 10.8324 2.82202 10.0104 3.83337 10.0104H6.16663C7.17798 10.0104 8 10.8324 8 11.8438V12.1771C8 12.4531 7.776 12.6771 7.5 12.6771V12.6771Z"/>
                <path d="M13.5 7.34375H9.83337C9.55737 7.34375 9.33337 7.11975 9.33337 6.84375C9.33337 6.56775 9.55737 6.34375 9.83337 6.34375H13.5C13.776 6.34375 14 6.56775 14 6.84375C14 7.11975 13.776 7.34375 13.5 7.34375Z"/>
                <path d="M13.5 10.0104H9.83337C9.55737 10.0104 9.33337 9.78637 9.33337 9.51037C9.33337 9.23437 9.55737 9.01038 9.83337 9.01038H13.5C13.776 9.01038 14 9.23437 14 9.51037C14 9.78637 13.776 10.0104 13.5 10.0104Z"/>
                <path d="M13.5 12.6771H9.83337C9.55737 12.6771 9.33337 12.4531 9.33337 12.1771C9.33337 11.9011 9.55737 11.6771 9.83337 11.6771H13.5C13.776 11.6771 14 11.9011 14 12.1771C14 12.4531 13.776 12.6771 13.5 12.6771Z"/>
            </g>
            <defs>
                <clipPath id="clip0">
                    <rect width="16" height="16" fill="white"/>
                </clipPath>
            </defs>
        </svg>
    </symbol>
</svg>
