<svg xmlns="http://www.w3.org/2000/svg" display="none">
    <symbol id="user" viewBox="0 0 16 16">
        <svg>
            <path d="M13.6569 10.3431C12.7855 9.47181 11.7484 8.82678 10.6168 8.43631C11.8288 7.60159 12.625 6.20463 12.625 4.625C12.625 2.07478 10.5502 0 8 0C5.44978 0 3.375 2.07478 3.375 4.625C3.375 6.20463 4.17122 7.60159 5.38319 8.43631C4.25163 8.82678 3.2145 9.47181 2.34316 10.3431C0.832156 11.8542 0 13.8631 0 16H1.25C1.25 12.278 4.27803 9.25 8 9.25C11.722 9.25 14.75 12.278 14.75 16H16C16 13.8631 15.1678 11.8542 13.6569 10.3431ZM8 8C6.13903 8 4.625 6.486 4.625 4.625C4.625 2.764 6.13903 1.25 8 1.25C9.86097 1.25 11.375 2.764 11.375 4.625C11.375 6.486 9.86097 8 8 8Z"/>
        </svg>
    </symbol>
    <symbol id="lock" viewBox="0 0 16 16">
        <svg>
            <g clip-path="url(#clip0)">
                <path d="M12.5 16H3.5C2.67333 16 2 15.3273 2 14.5V7.5C2 6.67267 2.67333 6 3.5 6H12.5C13.3267 6 14 6.67267 14 7.5V14.5C14 15.3273 13.3267 16 12.5 16ZM3.5 7C3.22467 7 3 7.224 3 7.5V14.5C3 14.776 3.22467 15 3.5 15H12.5C12.7753 15 13 14.776 13 14.5V7.5C13 7.224 12.7753 7 12.5 7H3.5Z"/>
                <path d="M11.5 7C11.224 7 11 6.776 11 6.5V4C11 2.346 9.654 0.999996 8 0.999996C6.346 0.999996 5 2.346 5 4V6.5C5 6.776 4.776 7 4.5 7C4.224 7 4 6.776 4 6.5V4C4 1.794 5.794 -3.8147e-06 8 -3.8147e-06C10.206 -3.8147e-06 12 1.794 12 4V6.5C12 6.776 11.776 7 11.5 7Z"/>
                <path d="M7.99999 11.3333C7.26466 11.3333 6.66666 10.7353 6.66666 10C6.66666 9.26467 7.26466 8.66667 7.99999 8.66667C8.73533 8.66667 9.33333 9.26467 9.33333 10C9.33333 10.7353 8.73533 11.3333 7.99999 11.3333ZM7.99999 9.66667C7.81666 9.66667 7.66666 9.816 7.66666 10C7.66666 10.184 7.81666 10.3333 7.99999 10.3333C8.18333 10.3333 8.33333 10.184 8.33333 10C8.33333 9.816 8.18333 9.66667 7.99999 9.66667Z"/>
                <path d="M8 13.3333C7.724 13.3333 7.5 13.1093 7.5 12.8333V11C7.5 10.724 7.724 10.5 8 10.5C8.276 10.5 8.5 10.724 8.5 11V12.8333C8.5 13.1093 8.276 13.3333 8 13.3333Z"/>
            </g>
            <defs>
                <clipPath id="clip0">
                    <rect width="16" height="16" fill="white"/>
                </clipPath>
            </defs>
        </svg>
    </symbol>
    <symbol id="eye" viewBox="0 0 16 16">
        <svg>
            <path d="M15.8983 7.6888C15.7554 7.49327 12.3496 2.9011 7.99992 2.9011C3.65019 2.9011 0.244313 7.49327 0.101531 7.68861C-0.0338438 7.87411 -0.0338438 8.1257 0.101531 8.3112C0.244313 8.50674 3.65019 13.0989 7.99992 13.0989C12.3496 13.0989 15.7554 8.50671 15.8983 8.31136C16.0339 8.12589 16.0339 7.87411 15.8983 7.6888ZM7.99992 12.044C4.79588 12.044 2.02085 8.99605 1.19938 7.99964C2.01979 7.00236 4.78901 3.95604 7.99992 3.95604C11.2038 3.95604 13.9787 7.00342 14.8005 8.00036C13.9801 8.99761 11.2108 12.044 7.99992 12.044Z" fill="#72CAEF"/>
            <path d="M7.99992 4.83517C6.25485 4.83517 4.83507 6.25495 4.83507 8.00002C4.83507 9.74508 6.25485 11.1649 7.99992 11.1649C9.74498 11.1649 11.1648 9.74508 11.1648 8.00002C11.1648 6.25495 9.74498 4.83517 7.99992 4.83517ZM7.99992 10.1099C6.83648 10.1099 5.89004 9.16342 5.89004 8.00002C5.89004 6.83661 6.83651 5.89014 7.99992 5.89014C9.16333 5.89014 10.1098 6.83661 10.1098 8.00002C10.1098 9.16342 9.16336 10.1099 7.99992 10.1099Z" fill="#72CAEF"/>
        </svg>
    </symbol>
</svg>
