<svg xmlns="http://www.w3.org/2000/svg" display="none">
    <symbol id="user" viewBox="0 0 16 16">
        <svg>
            <path d="M13.6569 10.3431C12.7855 9.47181 11.7484 8.82678 10.6168 8.43631C11.8288 7.60159 12.625 6.20463 12.625 4.625C12.625 2.07478 10.5502 0 8 0C5.44978 0 3.375 2.07478 3.375 4.625C3.375 6.20463 4.17122 7.60159 5.38319 8.43631C4.25163 8.82678 3.2145 9.47181 2.34316 10.3431C0.832156 11.8542 0 13.8631 0 16H1.25C1.25 12.278 4.27803 9.25 8 9.25C11.722 9.25 14.75 12.278 14.75 16H16C16 13.8631 15.1678 11.8542 13.6569 10.3431ZM8 8C6.13903 8 4.625 6.486 4.625 4.625C4.625 2.764 6.13903 1.25 8 1.25C9.86097 1.25 11.375 2.764 11.375 4.625C11.375 6.486 9.86097 8 8 8Z"/>
        </svg>
    </symbol>
    <symbol id="lock" viewBox="0 0 16 16">
        <svg>
            <g clip-path="url(#clip0)">
                <path d="M12.5 16H3.5C2.67333 16 2 15.3273 2 14.5V7.5C2 6.67267 2.67333 6 3.5 6H12.5C13.3267 6 14 6.67267 14 7.5V14.5C14 15.3273 13.3267 16 12.5 16ZM3.5 7C3.22467 7 3 7.224 3 7.5V14.5C3 14.776 3.22467 15 3.5 15H12.5C12.7753 15 13 14.776 13 14.5V7.5C13 7.224 12.7753 7 12.5 7H3.5Z"/>
                <path d="M11.5 7C11.224 7 11 6.776 11 6.5V4C11 2.346 9.654 0.999996 8 0.999996C6.346 0.999996 5 2.346 5 4V6.5C5 6.776 4.776 7 4.5 7C4.224 7 4 6.776 4 6.5V4C4 1.794 5.794 -3.8147e-06 8 -3.8147e-06C10.206 -3.8147e-06 12 1.794 12 4V6.5C12 6.776 11.776 7 11.5 7Z"/>
                <path d="M7.99999 11.3333C7.26466 11.3333 6.66666 10.7353 6.66666 10C6.66666 9.26467 7.26466 8.66667 7.99999 8.66667C8.73533 8.66667 9.33333 9.26467 9.33333 10C9.33333 10.7353 8.73533 11.3333 7.99999 11.3333ZM7.99999 9.66667C7.81666 9.66667 7.66666 9.816 7.66666 10C7.66666 10.184 7.81666 10.3333 7.99999 10.3333C8.18333 10.3333 8.33333 10.184 8.33333 10C8.33333 9.816 8.18333 9.66667 7.99999 9.66667Z"/>
                <path d="M8 13.3333C7.724 13.3333 7.5 13.1093 7.5 12.8333V11C7.5 10.724 7.724 10.5 8 10.5C8.276 10.5 8.5 10.724 8.5 11V12.8333C8.5 13.1093 8.276 13.3333 8 13.3333Z"/>
            </g>
            <defs>
                <clipPath id="clip0">
                    <rect width="16" height="16" fill="white"/>
                </clipPath>
            </defs>
        </svg>
    </symbol>
    <symbol id="email" viewBox="0 0 16 16">
        <svg>
            <path d="M14.5938 2H1.40625C0.631813 2 0 2.63112 0 3.40625V12.7812C0 13.5538 0.629 14.1875 1.40625 14.1875H14.5938C15.3663 14.1875 16 13.5585 16 12.7812V3.40625C16 2.63375 15.371 2 14.5938 2ZM14.3996 2.9375L8.02981 9.30728L1.60497 2.9375H14.3996ZM0.9375 12.5871V3.59591L5.45247 8.07216L0.9375 12.5871ZM1.60041 13.25L6.11822 8.73219L7.70125 10.3016C7.8845 10.4833 8.18022 10.4827 8.36272 10.3002L9.90625 8.75666L14.3996 13.25H1.60041ZM15.0625 12.5871L10.5692 8.09375L15.0625 3.60037V12.5871Z"/>
        </svg>
    </symbol>
    <symbol id="confirm" viewBox="0 0 16 16">
        <svg>
            <g clip-path="url(#clip0)">
                <path d="M8.00005 0.000999451C3.5888 0.000999451 0 3.58975 0 8.00094C0 12.4121 3.5888 16.0009 8.00005 16.0009C12.4112 16.0009 16 12.4121 16 8.00094C16 3.58975 12.4112 0.000999451 8.00005 0.000999451ZM8.00005 14.6894C4.31195 14.6894 1.31147 11.689 1.31147 8.00094C1.31147 4.31289 4.31195 1.31247 8.00005 1.31247C11.6881 1.31247 14.6885 4.31289 14.6885 8.00094C14.6885 11.689 11.6881 14.6894 8.00005 14.6894Z"/>
                <path d="M11.4608 4.92954L6.71089 9.67951L4.5392 7.50783C4.2831 7.25178 3.86794 7.25178 3.61184 7.50783C3.35579 7.76394 3.35579 8.17909 3.61184 8.4352L6.2472 11.0706C6.37526 11.1986 6.54307 11.2626 6.71089 11.2626C6.8787 11.2626 7.04652 11.1986 7.17457 11.0706L12.3882 5.85696C12.6442 5.60086 12.6442 5.1857 12.3882 4.92959C12.1321 4.67349 11.7169 4.67349 11.4608 4.92954Z"/>
            </g>
            <defs>
                <clipPath id="clip0">
                    <rect width="16" height="16" fill="white"/>
                </clipPath>
            </defs>
        </svg>

    </symbol>
</svg>
