<svg xmlns="http://www.w3.org/2000/svg" display="none">
    <symbol id="close" viewBox="0 0 16 16">
        <svg>
            <g clip-path="url(#clip0)">
                <path d="M9.46586 8.01313L15.696 1.78287C16.1014 1.37761 16.1014 0.722376 15.696 0.317123C15.2907 -0.0881296 14.6355 -0.0881296 14.2302 0.317123L7.99992 6.54738L1.76983 0.317123C1.36439 -0.0881296 0.709337 -0.0881296 0.304083 0.317123C-0.101361 0.722376 -0.101361 1.37761 0.304083 1.78287L6.53418 8.01313L0.304083 14.2434C-0.101361 14.6486 -0.101361 15.3039 0.304083 15.7091C0.506046 15.9113 0.771596 16.0128 1.03696 16.0128C1.30232 16.0128 1.56768 15.9113 1.76983 15.7091L7.99992 9.47887L14.2302 15.7091C14.4324 15.9113 14.6977 16.0128 14.9631 16.0128C15.2284 16.0128 15.4938 15.9113 15.696 15.7091C16.1014 15.3039 16.1014 14.6486 15.696 14.2434L9.46586 8.01313Z"/>
            </g>
            <defs>
                <clipPath id="clip0">
                    <rect width="16" height="16" fill="white"/>
                </clipPath>
            </defs>
        </svg>
    </symbol>
    <symbol id="follow" viewBox="0 0 16 16">
        <svg>
            <path d="M15.375 3.98438H14.8125V3.42188C14.8125 3.07669 14.5327 2.79688 14.1875 2.79688C13.8423 2.79688 13.5625 3.07669 13.5625 3.42188V3.98438H13C12.6548 3.98438 12.375 4.26419 12.375 4.60938C12.375 4.95456 12.6548 5.23438 13 5.23438H13.5625V5.79688C13.5625 6.14206 13.8423 6.42188 14.1875 6.42188C14.5327 6.42188 14.8125 6.14206 14.8125 5.79688V5.23438H15.375C15.7202 5.23438 16 4.95456 16 4.60938C16 4.26419 15.7202 3.98438 15.375 3.98438Z" />
            <path d="M9.85653 7.78847C10.8079 7.05347 11.4219 5.90188 11.4219 4.60938C11.4219 2.39516 9.62047 0.59375 7.40625 0.59375C5.19203 0.59375 3.39062 2.39516 3.39062 4.60938C3.39062 5.90184 4.00456 7.05347 4.95597 7.78847C2.13416 8.77478 0 11.4821 0 14.7812C0 15.1264 0.279813 15.4062 0.625 15.4062H14.1875C14.5327 15.4062 14.8125 15.1264 14.8125 14.7812C14.8125 11.4813 12.6767 8.77422 9.85653 7.78847ZM4.64062 4.60938C4.64062 3.08441 5.88128 1.84375 7.40625 1.84375C8.93122 1.84375 10.1719 3.08441 10.1719 4.60938C10.1719 6.13434 8.93122 7.375 7.40625 7.375C5.88128 7.375 4.64062 6.13434 4.64062 4.60938ZM1.2815 14.1562C1.59566 11.0541 4.22259 8.625 7.40625 8.625C10.5899 8.625 13.2168 11.0541 13.531 14.1562H1.2815Z" />
        </svg>
    </symbol>
</svg>
