<svg xmlns="http://www.w3.org/2000/svg" display="none">
    <symbol id="close" viewBox="0 0 16 16">
        <svg>
            <g clip-path="url(#clip0)">
                <path d="M9.46586 8.01313L15.696 1.78287C16.1014 1.37761 16.1014 0.722376 15.696 0.317123C15.2907 -0.0881296 14.6355 -0.0881296 14.2302 0.317123L7.99992 6.54738L1.76983 0.317123C1.36439 -0.0881296 0.709337 -0.0881296 0.304083 0.317123C-0.101361 0.722376 -0.101361 1.37761 0.304083 1.78287L6.53418 8.01313L0.304083 14.2434C-0.101361 14.6486 -0.101361 15.3039 0.304083 15.7091C0.506046 15.9113 0.771596 16.0128 1.03696 16.0128C1.30232 16.0128 1.56768 15.9113 1.76983 15.7091L7.99992 9.47887L14.2302 15.7091C14.4324 15.9113 14.6977 16.0128 14.9631 16.0128C15.2284 16.0128 15.4938 15.9113 15.696 15.7091C16.1014 15.3039 16.1014 14.6486 15.696 14.2434L9.46586 8.01313Z"/>
            </g>
            <defs>
                <clipPath id="clip0">
                    <rect width="16" height="16" fill="white"/>
                </clipPath>
            </defs>
        </svg>
    </symbol>
    <symbol id="follow" viewBox="0 0 16 16">
        <svg>
            <path d="M15.375 3.98438H14.8125V3.42188C14.8125 3.07669 14.5327 2.79688 14.1875 2.79688C13.8423 2.79688 13.5625 3.07669 13.5625 3.42188V3.98438H13C12.6548 3.98438 12.375 4.26419 12.375 4.60938C12.375 4.95456 12.6548 5.23438 13 5.23438H13.5625V5.79688C13.5625 6.14206 13.8423 6.42188 14.1875 6.42188C14.5327 6.42188 14.8125 6.14206 14.8125 5.79688V5.23438H15.375C15.7202 5.23438 16 4.95456 16 4.60938C16 4.26419 15.7202 3.98438 15.375 3.98438Z" />
            <path d="M9.85653 7.78847C10.8079 7.05347 11.4219 5.90188 11.4219 4.60938C11.4219 2.39516 9.62047 0.59375 7.40625 0.59375C5.19203 0.59375 3.39062 2.39516 3.39062 4.60938C3.39062 5.90184 4.00456 7.05347 4.95597 7.78847C2.13416 8.77478 0 11.4821 0 14.7812C0 15.1264 0.279813 15.4062 0.625 15.4062H14.1875C14.5327 15.4062 14.8125 15.1264 14.8125 14.7812C14.8125 11.4813 12.6767 8.77422 9.85653 7.78847ZM4.64062 4.60938C4.64062 3.08441 5.88128 1.84375 7.40625 1.84375C8.93122 1.84375 10.1719 3.08441 10.1719 4.60938C10.1719 6.13434 8.93122 7.375 7.40625 7.375C5.88128 7.375 4.64062 6.13434 4.64062 4.60938ZM1.2815 14.1562C1.59566 11.0541 4.22259 8.625 7.40625 8.625C10.5899 8.625 13.2168 11.0541 13.531 14.1562H1.2815Z" />
        </svg>
    </symbol>
    <symbol id="write" viewBox="0 0 32 32">
        <svg>
            <g clip-path="url(#clip0)">
                <path d="M29.5347 20.1022C29.0945 20.1022 28.7378 20.459 28.7378 20.8992V27.9754C28.7362 29.2953 27.6669 30.365 26.3469 30.3663H3.98483C2.66485 30.365 1.59549 29.2953 1.59393 27.9754V7.20724C1.59549 5.88758 2.66485 4.8179 3.98483 4.81634H11.061C11.5012 4.81634 11.858 4.45958 11.858 4.01938C11.858 3.57949 11.5012 3.22241 11.061 3.22241H3.98483C1.78508 3.2249 0.00249052 5.00749 0 7.20724V27.9757C0.00249052 30.1754 1.78508 31.958 3.98483 31.9605H26.3469C28.5466 31.958 30.3292 30.1754 30.3317 27.9757V20.8992C30.3317 20.459 29.9749 20.1022 29.5347 20.1022V20.1022Z" />
                <path d="M30.016 1.17155C28.6154 -0.229058 26.3447 -0.229058 24.9441 1.17155L10.7257 15.3899C10.6282 15.4874 10.5579 15.6081 10.5212 15.7408L8.6514 22.491C8.5745 22.7678 8.65264 23.0641 8.85562 23.2674C9.05891 23.4704 9.35528 23.5485 9.63204 23.472L16.3823 21.6019C16.5149 21.5652 16.6357 21.4948 16.7331 21.3974L30.9512 7.17868C32.3496 5.77714 32.3496 3.50828 30.9512 2.10674L30.016 1.17155ZM12.4622 15.9079L24.0988 4.271L27.8517 8.0239L16.2148 19.6608L12.4622 15.9079ZM11.7126 17.4122L14.7108 20.4108L10.5635 21.5599L11.7126 17.4122ZM29.8242 6.05172L28.979 6.89694L25.2258 3.14373L26.0713 2.29851C26.8493 1.52053 28.1107 1.52053 28.8887 2.29851L29.8242 3.2337C30.601 4.01261 30.601 5.27312 29.8242 6.05172V6.05172Z" />
            </g>
            <defs>
                <clipPath id="clip0">
                    <rect width="32" height="32" fill="white"/>
                </clipPath>
            </defs>
        </svg>
    </symbol>
</svg>
