<svg xmlns="http://www.w3.org/2000/svg" display="none">
    <symbol id="close" viewBox="0 0 16 16">
        <svg>
            <g clip-path="url(#clip0)">
                <path d="M9.46586 8.01313L15.696 1.78287C16.1014 1.37761 16.1014 0.722376 15.696 0.317123C15.2907 -0.0881296 14.6355 -0.0881296 14.2302 0.317123L7.99992 6.54738L1.76983 0.317123C1.36439 -0.0881296 0.709337 -0.0881296 0.304083 0.317123C-0.101361 0.722376 -0.101361 1.37761 0.304083 1.78287L6.53418 8.01313L0.304083 14.2434C-0.101361 14.6486 -0.101361 15.3039 0.304083 15.7091C0.506046 15.9113 0.771596 16.0128 1.03696 16.0128C1.30232 16.0128 1.56768 15.9113 1.76983 15.7091L7.99992 9.47887L14.2302 15.7091C14.4324 15.9113 14.6977 16.0128 14.9631 16.0128C15.2284 16.0128 15.4938 15.9113 15.696 15.7091C16.1014 15.3039 16.1014 14.6486 15.696 14.2434L9.46586 8.01313Z"/>
            </g>
            <defs>
                <clipPath id="clip0">
                    <rect width="16" height="16" fill="white"/>
                </clipPath>
            </defs>
        </svg>
    </symbol>
</svg>
