<svg xmlns="http://www.w3.org/2000/svg" display="none">
    <symbol id="user" viewBox="0 0 16 16">
        <svg>
            <path d="M8.00113 0C5.7154 0 3.84692 1.86847 3.84692 4.1542C3.84692 6.43993 5.7154 8.3084 8.00113 8.3084C10.2869 8.3084 12.1553 6.43993 12.1553 4.1542C12.1553 1.86847 10.2869 0 8.00113 0Z"/>
            <path d="M15.1304 11.6281C15.0216 11.356 14.8765 11.1021 14.7132 10.8662C13.8787 9.63266 12.5908 8.81634 11.1395 8.61679C10.9581 8.59866 10.7586 8.63491 10.6135 8.74377C9.85155 9.30613 8.94454 9.59637 8.0012 9.59637C7.05787 9.59637 6.15086 9.30613 5.38895 8.74377C5.24381 8.63491 5.04426 8.5805 4.86287 8.61679C3.41162 8.81634 2.10551 9.63266 1.28919 10.8662C1.12593 11.1021 0.980788 11.3742 0.871968 11.6281C0.817558 11.737 0.835683 11.864 0.890093 11.9728C1.03523 12.2268 1.21662 12.4808 1.37988 12.6985C1.63384 13.0431 1.90596 13.3515 2.21436 13.6418C2.46832 13.8957 2.75857 14.1315 3.04884 14.3674C4.48193 15.4377 6.2053 16 7.98308 16C9.76086 16 11.4842 15.4377 12.9173 14.3674C13.2076 14.1497 13.4978 13.8957 13.7518 13.6418C14.042 13.3515 14.3323 13.0431 14.5863 12.6985C14.7677 12.4626 14.931 12.2268 15.0761 11.9728C15.1667 11.864 15.1849 11.737 15.1304 11.6281Z"/>
        </svg>
    </symbol>
    <symbol id="settings" viewBox="0 0 16 16">
        <svg>
            <path d="M8.79471 8.94075C8.47149 8.7388 8.17874 8.4925 7.92508 8.21015L7.01056 8.73826L6.17786 7.29594L7.09054 6.76897C6.9745 6.41469 6.90624 6.03891 6.89345 5.64937L5.85513 5.46629L6.14444 3.82618L7.18256 4.00926C7.32603 3.65368 7.5185 3.32305 7.75193 3.02591L7.07332 2.21728L8.3491 1.14684L9.02714 1.95479C9.35831 1.77732 9.71694 1.64466 10.0949 1.56506V0.511353H11.7603V1.56506C12.1383 1.64466 12.4969 1.77732 12.8281 1.95479L13.5061 1.14684L14.7819 2.21732L14.1034 3.02595C14.3368 3.32309 14.5293 3.65376 14.6727 4.0093L15.7108 3.82622L16 5.46633L14.9618 5.64941C14.949 6.03898 14.8807 6.41469 14.7647 6.76908L15.6775 7.29601L14.8447 8.7383L13.9302 8.21034C13.6766 8.49258 13.3838 8.73891 13.0606 8.94086L13.4216 9.93258L11.8566 10.5021L11.4961 9.51172C11.3103 9.538 11.1205 9.55194 10.9276 9.55194C10.7347 9.55194 10.5449 9.53808 10.3591 9.51172L9.99865 10.5022L8.43371 9.9325L8.79471 8.94075ZM10.9277 7.642C12.1004 7.642 13.0545 6.68795 13.0545 5.51518C13.0545 4.34249 12.1004 3.38837 10.9277 3.38837C9.75495 3.38837 8.80086 4.34249 8.80086 5.51518C8.80086 6.68795 9.75491 7.642 10.9277 7.642Z"/>
            <path d="M1.63631 10.1913L2.35423 10.4236C2.49112 10.1856 2.66034 9.97021 2.85518 9.78267L2.45396 9.14233L3.46416 8.5094L3.86515 9.1492C4.11741 9.05608 4.38471 8.99744 4.66065 8.97842L4.76473 8.23132L5.94549 8.39591L5.8414 9.14301C6.10148 9.23671 6.34274 9.36635 6.55996 9.52483L7.12039 9.01895L7.91917 9.9039L7.35828 10.4104C7.49434 10.6441 7.59805 10.8975 7.66462 11.1638L8.41879 11.1366L8.46191 12.3279L7.70779 12.3552C7.66019 12.6302 7.57463 12.8896 7.45729 13.1295L8.05233 13.5933L7.31951 14.5336L6.72329 14.0689C6.51558 14.2439 6.28361 14.3896 6.03456 14.501L6.19262 15.2399L5.02677 15.4889L4.8689 14.7512C4.7346 14.7516 4.59877 14.7424 4.46202 14.7234C4.3252 14.7044 4.19197 14.6757 4.06298 14.6388L3.70942 15.3054L2.65617 14.7468L3.01011 14.0795C2.80079 13.9043 2.61779 13.7006 2.46572 13.4755L1.76526 13.7595L1.31732 12.6547L2.01645 12.3712C1.96931 12.1086 1.95804 11.8354 1.98727 11.5579L1.2692 11.3255L1.63631 10.1913ZM4.65052 13.3693C5.48211 13.4851 6.25286 12.903 6.36863 12.0715C6.48464 11.24 5.90236 10.4691 5.07081 10.3534C4.23933 10.2374 3.46878 10.8197 3.3527 11.6513C3.237 12.4827 3.81909 13.2533 4.65052 13.3693Z"/>
            <path d="M0.0279695 6.06001L9.40043e-06 5.11925L0.595351 5.10156C0.63267 4.89423 0.699362 4.68892 0.797223 4.49151L0.329689 4.12215L0.912998 3.3838L1.38046 3.75301C1.54719 3.61447 1.7316 3.50152 1.92736 3.41626L1.80651 2.83219L2.72794 2.64136L2.84902 3.22505C3.06136 3.22535 3.27515 3.25549 3.48466 3.31718L3.76698 2.79285L4.59567 3.23914L4.31335 3.76355C4.48001 3.90435 4.62302 4.06661 4.74024 4.24354L5.29395 4.02314L5.64196 4.89759L5.0878 5.11833C5.12428 5.32872 5.13138 5.54453 5.10743 5.76001L5.6731 5.94709L5.37776 6.84072L4.81209 6.6537C4.70132 6.84416 4.56664 7.01261 4.41385 7.15795L4.72672 7.66475L3.92599 8.15925L3.61243 7.65153C3.41056 7.72395 3.19883 7.76807 2.98397 7.78194L2.89795 8.3722L1.96659 8.23618L2.05238 7.64664C1.95299 7.61009 1.8549 7.56608 1.75888 7.51436C1.66277 7.46272 1.57205 7.40485 1.4868 7.34209L1.04188 7.73824L0.415938 7.03549L0.861165 6.63888C0.754403 6.45172 0.674953 6.25065 0.624227 6.04228L0.0279695 6.06001ZM2.27053 6.56409C2.85422 6.87834 3.58466 6.65928 3.89876 6.07582C4.21312 5.49228 3.99402 4.76168 3.41033 4.44759C2.82695 4.13326 2.09654 4.35248 1.78218 4.93602C1.46812 5.51959 1.68706 6.24981 2.27053 6.56409Z"/>
        </svg>
    </symbol>
    <symbol id="logout" viewBox="0 0 16 16">
        <svg>
            <g clip-path="url(#clip0)">
                <path d="M9.9999 8.66715C9.63125 8.66715 9.33328 8.96585 9.33328 9.33377V12.0005C9.33328 12.3678 9.03457 12.6671 8.66654 12.6671H6.66656V2.66721C6.66656 2.09788 6.30389 1.58922 5.75861 1.39989L5.56122 1.33385H8.66654C9.03457 1.33385 9.33328 1.63316 9.33328 2.00059V4.00057C9.33328 4.36849 9.63125 4.66719 9.9999 4.66719C10.3685 4.66719 10.6665 4.36849 10.6665 4.00057V2.00059C10.6665 0.89794 9.76918 0.000610352 8.66654 0.000610352H1.49998C1.47459 0.000610352 1.45335 0.0119628 1.4287 0.0152586C1.39659 0.0125731 1.36595 0.000610352 1.33336 0.000610352C0.598016 0.000610352 0 0.598505 0 1.33385V13.3337C0 13.9031 0.362667 14.4117 0.907949 14.6011L4.91999 15.9384C5.05598 15.9804 5.19123 16.0005 5.33332 16.0005C6.06866 16.0005 6.66656 15.4024 6.66656 14.6671V14.0005H8.66654C9.76918 14.0005 10.6665 13.1031 10.6665 12.0005V9.33377C10.6665 8.96585 10.3685 8.66715 9.9999 8.66715V8.66715Z"/>
                <path d="M15.8045 6.19548L13.1378 3.52889C12.9472 3.33821 12.6605 3.28084 12.4112 3.38411C12.1626 3.48751 11.9998 3.73079 11.9998 4.0002V6.00017H9.33324C8.96521 6.00017 8.6665 6.29875 8.6665 6.66679C8.6665 7.03483 8.96521 7.33341 9.33324 7.33341H11.9998V9.33339C11.9998 9.6028 12.1626 9.84608 12.4112 9.94947C12.6605 10.0527 12.9472 9.99537 13.1378 9.80482L15.8045 7.1381C16.0651 6.87748 16.0651 6.4561 15.8045 6.19548V6.19548Z"/>
            </g>
            <defs>
                <clipPath id="clip0">
                    <rect width="16" height="16" fill="white"/>
                </clipPath>
            </defs>
        </svg>
    </symbol>
</svg>
