<svg xmlns="http://www.w3.org/2000/svg" display="none">
    <symbol id="views" viewBox="0 0 16 16">
        <svg>
            <path d="M15.8983 7.6888C15.7554 7.49327 12.3496 2.9011 7.99992 2.9011C3.65019 2.9011 0.244313 7.49327 0.101531 7.68861C-0.0338438 7.87411 -0.0338438 8.1257 0.101531 8.3112C0.244313 8.50674 3.65019 13.0989 7.99992 13.0989C12.3496 13.0989 15.7554 8.50671 15.8983 8.31136C16.0339 8.12589 16.0339 7.87411 15.8983 7.6888ZM7.99992 12.044C4.79588 12.044 2.02085 8.99605 1.19938 7.99964C2.01979 7.00236 4.78901 3.95604 7.99992 3.95604C11.2038 3.95604 13.9787 7.00342 14.8005 8.00036C13.9801 8.99761 11.2108 12.044 7.99992 12.044Z" fill="#6C8CFF"/>
            <path d="M7.99992 4.83517C6.25485 4.83517 4.83507 6.25495 4.83507 8.00002C4.83507 9.74508 6.25485 11.1649 7.99992 11.1649C9.74498 11.1649 11.1648 9.74508 11.1648 8.00002C11.1648 6.25495 9.74498 4.83517 7.99992 4.83517ZM7.99992 10.1099C6.83648 10.1099 5.89004 9.16342 5.89004 8.00002C5.89004 6.83661 6.83651 5.89014 7.99992 5.89014C9.16333 5.89014 10.1098 6.83661 10.1098 8.00002C10.1098 9.16342 9.16336 10.1099 7.99992 10.1099Z" fill="#6C8CFF"/>
        </svg>
    </symbol>
    <symbol id="comments" viewBox="0 0 16 16">
        <svg>
            <path d="M1.6 0.533325H14.4C15.2672 0.533325 16 1.26613 16 2.13333V10.9333C16 11.8005 15.2672 12.5333 14.4 12.5333H6.78453L4.19733 15.3795C4.1456 15.436 4.0736 15.4667 4 15.4667C3.96773 15.4667 3.9352 15.4608 3.90373 15.4488C3.80107 15.4091 3.73333 15.3101 3.73333 15.2V12.5333H1.6C0.7328 12.5333 0 11.8005 0 10.9333V2.13333C0 1.26613 0.7328 0.533325 1.6 0.533325Z" fill="#6C8CFF"/>
        </svg>
    </symbol>
</svg>
