<svg width="16" height="16" viewBox="0 0 16 16" fill="none" xmlns="http://www.w3.org/2000/svg">
<path d="M12.2801 6.23832C13.0601 5.59138 13.5578 4.61529 13.5578 3.5251C13.5577 1.58191 11.9768 0.000976562 10.0336 0.000976562C8.09038 0.000976562 6.50947 1.58191 6.50947 3.5251C6.50947 3.7791 6.53672 4.02682 6.58803 4.26573C6.38734 4.2301 6.18091 4.21145 5.97016 4.21145C4.02694 4.21145 2.44603 5.79238 2.44603 7.73557C2.44603 8.82566 2.94363 9.80166 3.7235 10.4486C1.54184 11.3381 0 13.482 0 15.9796H1.25028C1.25028 13.377 3.36759 11.2597 5.97013 11.2597C7.91334 11.2597 9.49425 9.67879 9.49425 7.7356C9.49425 7.4816 9.467 7.23385 9.41569 6.99495C9.61638 7.03057 9.82281 7.04923 10.0336 7.04923C11.5673 7.04923 12.9319 7.78498 13.7945 8.9216L14.6417 7.97829C14.0155 7.21835 13.2053 6.61566 12.2801 6.23832ZM5.97016 10.0094C4.71637 10.0094 3.69631 8.98938 3.69631 7.73557C3.69631 6.48176 4.71637 5.46173 5.97016 5.46173C7.22394 5.46173 8.244 6.48179 8.244 7.73557C8.244 8.98935 7.22394 10.0094 5.97016 10.0094ZM10.0336 5.79891C8.77981 5.79891 7.75975 4.77888 7.75975 3.52507C7.75975 2.27126 8.77981 1.25126 10.0336 1.25126C11.2874 1.25126 12.3074 2.27129 12.3074 3.5251C12.3074 4.77895 11.2874 5.79891 10.0336 5.79891Z" fill="#686868"/>
<path d="M15.0698 9.37207L10.7272 14.2071L8.27658 11.8743L7.41458 12.7799L10.7975 16L16 10.2075L15.0698 9.37207Z" fill="#686868"/>
</svg>
