<svg width="59" height="48" viewBox="0 0 59 48" fill="none" xmlns="http://www.w3.org/2000/svg">
<path d="M28.9262 47L58 14.873L51.4966 18.8889L44.9933 22.9048C42.0672 23.4283 39.7009 23.8581 37.3423 24.2887C34.7671 24.7589 32.2012 25.2301 28.9262 25.8254V47Z" fill="#5C75F9"/>
<path d="M58 14.873L28.9262 1V25.8254C32.2012 25.2301 34.7671 24.7589 37.3423 24.2887C39.7009 23.8581 42.0672 23.4283 44.9933 22.9048L51.4966 18.8889L58 14.873Z" fill="#5C75F9"/>
<path d="M28.9262 47V25.8254L20.8926 24.2887L12.4765 22.9048L6.3557 20.7143L1 18.8889L28.9262 47Z" fill="#5C75F9"/>
<path d="M28.9262 1L58 14.873M28.9262 1V25.8254M28.9262 1L44.9933 22.9048M28.9262 1L18.5973 13.0476M28.9262 1L25.1007 17.7937M28.9262 1L20.8926 15.9683M28.9262 47L58 14.873M28.9262 47V25.8254M28.9262 47L1 18.8889M28.9262 47L12.4765 22.9048M28.9262 47L44.9933 22.9048M28.9262 47L20.8926 24.2887M28.9262 47L6.3557 20.7143M58 14.873L51.4966 18.8889L44.9933 22.9048M28.9262 25.8254L25.1007 17.7937M28.9262 25.8254C32.2012 25.2301 34.7671 24.7589 37.3423 24.2887C39.7009 23.8581 42.0672 23.4283 44.9933 22.9048M28.9262 25.8254L20.8926 24.2887M1 18.8889L18.5973 13.0476M1 18.8889L6.3557 20.7143M12.4765 22.9048L25.1007 17.7937M12.4765 22.9048L6.3557 20.7143M12.4765 22.9048L20.8926 24.2887M18.5973 13.0476L20.8926 15.9683M25.1007 17.7937L20.8926 15.9683M25.1007 17.7937L20.8926 24.2887M20.8926 15.9683L6.3557 20.7143" stroke="#657EFF"/>
</svg>
